<?xml version="1.0" standalone="no"?><!DOCTYPE svg PUBLIC "-//W3C//DTD SVG 1.1//EN" "http://www.w3.org/Graphics/SVG/1.1/DTD/svg11.dtd"><svg t="1579800262154" class="icon" viewBox="0 0 1024 1024" version="1.1" xmlns="http://www.w3.org/2000/svg" p-id="3001" xmlns:xlink="http://www.w3.org/1999/xlink" width="200" height="200"><defs><style type="text/css"></style></defs><path d="M873.42 226.97c0-76.13-61.72-137.85-137.85-137.85H288.9c-76.13 0-137.85 61.72-137.85 137.85v574.16c0 76.13 61.72 137.85 137.85 137.85h358.73l225.8-209.9V226.97z" fill="#2B0C5B" p-id="3002"></path><path d="M655.98 960.22H288.9c-87.73 0-159.09-71.37-159.09-159.09V226.97c0-87.73 71.37-159.1 159.09-159.1h446.68c87.73 0 159.1 71.37 159.1 159.1v511.37l-238.7 221.88zM288.9 110.37c-64.29 0-116.6 52.31-116.6 116.6v574.16c0 64.29 52.31 116.6 116.6 116.6h350.38l212.9-197.91V226.97c0-64.29-52.31-116.6-116.6-116.6H288.9z" fill="#D8A9F7" p-id="3003"></path><path d="M422.06 361.08l104.4 273.06h-47.8l-24.86-68.46H339.45l-24.86 68.46h-47.8l104.4-273.06h50.87z m18.35 167.89l-42.83-119.7h-1.53l-43.21 119.7h87.57zM708.11 463.96c15.68 19.89 23.71 47.8 23.71 83.37h-148c1.53 18.36 6.5 32.51 14.92 42.07 8.41 9.56 20.65 14.53 36.33 14.53 13.38 0 24.09-3.06 32.51-9.18 6.5-4.97 12.24-13 17.59-24.09h43.6c-4.59 18.36-13.77 34.04-27.54 46.27-17.59 14.91-39.39 22.56-65.78 22.56-29.45 0-52.78-9.18-69.99-27.15-18.36-18.74-27.54-44.36-27.54-77.25 0-29.45 8.41-53.92 26.01-73.81 16.83-20.27 40.16-30.21 69.6-30.21 32.51 0 57.37 10.71 74.58 32.89z m-107.46 14.91c-8.03 8.03-13.38 19.89-16.06 35.57h101.73c-3.82-32.12-21.03-47.8-51.63-47.8-14.54 0-25.63 3.82-34.04 12.23z" fill="#D8A9F7" p-id="3004"></path></svg>