<?xml version="1.0" standalone="no"?><!DOCTYPE svg PUBLIC "-//W3C//DTD SVG 1.1//EN" "http://www.w3.org/Graphics/SVG/1.1/DTD/svg11.dtd"><svg t="1567136517613" class="icon" viewBox="0 0 1024 1024" version="1.1" xmlns="http://www.w3.org/2000/svg" p-id="1185" xmlns:xlink="http://www.w3.org/1999/xlink" width="200" height="200"><defs><style type="text/css"></style></defs><path d="M0 0h1024v1024H0z" fill="#D291FF" p-id="1186"></path><path d="M55 55h914v914H55z" fill="#1F0040" p-id="1187"></path><path d="M295.6 616.4l-33.8 127.5c-0.7 3.5-2.1 4.8-6.3 4.8h-62.7c-4.2 0-4.9-1.4-4.2-6.3l121.1-423.9c2.1-7.7 3.5-13.9 4.2-35 0-2.8 1.4-4.2 3.5-4.2h89.4c2.8 0 4.2 0.7 4.9 4.2l135.9 459.6c0.7 3.5 0 5.6-3.5 5.6h-70.4c-3.5 0-5.6-1.3-6.3-4.1l-35.2-128.2H295.6z m119.8-69.3c-12-47.2-40.9-150.7-51.5-200.7h-0.7c-9.2 50-32.3 134.4-49.9 200.6l102.1 0.1z m228.7 43.7c0.7 57.7 28.2 96.5 93 96.5 25.3 0 47.1-3.4 69.6-13.2 2.8-1.4 4.9-0.7 4.9 2.8v53.5c0 4.2-1.4 6.3-4.2 8.4-22.5 11.3-50.6 16.2-85.8 16.2-112.7 0-154.9-83.1-154.9-176 0-100.7 52.1-183.1 143.7-183.1 92.9 0 125.3 78.2 125.3 141.5 0 20.4-1.4 37.3-3.5 45.1-0.7 3.5-2.1 4.8-5.6 5.5-8.5 1.4-33.8 2.8-71.1 2.8H644.1z m86.7-58.7c21.8 0 29.6 0 31.7-0.7 0-2.8 0.7-5.2 0.7-7.3 0-23.2-11.3-65.9-55.6-65.9-40.8 0-58.4 35.9-62.7 73.9h85.9z" fill="#D291FF" p-id="1188"></path></svg>