<?xml version="1.0" standalone="no"?><!DOCTYPE svg PUBLIC "-//W3C//DTD SVG 1.1//EN" "http://www.w3.org/Graphics/SVG/1.1/DTD/svg11.dtd"><svg t="1579800246501" class="icon" viewBox="0 0 1024 1024" version="1.1" xmlns="http://www.w3.org/2000/svg" p-id="2869" xmlns:xlink="http://www.w3.org/1999/xlink" width="200" height="200"><defs><style type="text/css"></style></defs><path d="M870.87 222.73c0-76.5-62.02-138.52-138.52-138.52H283.49c-76.5 0-138.52 62.02-138.52 138.52v576.96c0 76.5 62.02 138.52 138.52 138.52h360.48l226.9-210.92V222.73z" fill="#2C1800" p-id="2870"></path><path d="M652.36 959.56H283.49c-88.15 0-159.87-71.72-159.87-159.87V222.73c0-88.15 71.72-159.87 159.87-159.87h448.86c88.15 0 159.87 71.72 159.87 159.87v513.86L652.36 959.56z m-368.87-854c-64.61 0-117.17 52.56-117.17 117.17v576.96c0 64.61 52.56 117.17 117.17 117.17h352.09l213.94-198.87V222.73c0-64.61-52.56-117.17-117.17-117.17H283.49z" fill="#E5AD4A" p-id="2871"></path><path d="M484.08 357.49l104.91 274.38h-48.04l-24.98-68.79h-114.9l-24.98 68.79h-48.04l104.91-274.38h51.12z m18.44 168.7l-43.04-120.28h-1.54l-43.43 120.28h88.01zM663.16 360.18c5.38 5.38 8.45 12.3 8.45 20.75s-3.07 15.76-8.84 21.14c-5.76 5.38-12.68 8.07-21.14 8.07s-15.37-2.69-21.14-8.07c-5.76-5.76-8.45-12.68-8.45-21.14 0-8.45 2.69-15.37 8.45-20.75 5.76-5.38 12.68-8.07 21.14-8.07s15.76 2.69 21.53 8.07z m0.38 73.02v198.68h-43.81V433.2h43.81z" fill="#E5AD4A" p-id="2872"></path></svg>