<?xml version="1.0" standalone="no"?><!DOCTYPE svg PUBLIC "-//W3C//DTD SVG 1.1//EN" "http://www.w3.org/Graphics/SVG/1.1/DTD/svg11.dtd"><svg t="1572233274360" class="icon" viewBox="0 0 1024 1024" version="1.1" xmlns="http://www.w3.org/2000/svg" p-id="9396" width="200" height="200" xmlns:xlink="http://www.w3.org/1999/xlink"><defs><style type="text/css"></style></defs><path d="M512 1024C229.239467 1024 0 794.7776 0 511.982933 0 229.205333 229.239467 0 512 0c282.794667 0 512 229.205333 512 511.982933C1024 794.7776 794.794667 1024 512 1024z m460.680533-512.017067c0-253.9008-207.394133-460.458667-461.073066-460.458666-253.678933 0-460.049067 206.557867-460.049067 460.458666 0 253.866667 206.370133 460.424533 460.049067 460.424534 253.678933 0 461.073067-206.557867 461.073066-460.424534z m-459.9808 280.234667L287.163733 583.509333a25.6 25.6 0 0 1 36.181334-36.181333l163.2256 152.200533V281.514667a25.6 25.6 0 0 1 51.2 0v419.601066l165.888-150.596266a25.531733 25.531733 0 0 1 43.656533 18.056533c0 6.536533-2.491733 13.141333-7.4752 18.107733L512.682667 792.234667z" p-id="9397" fill="#dc0a18"></path></svg>